<svg width="25" height="24" viewBox="0 0 25 24" fill="none" xmlns="http://www.w3.org/2000/svg">
<path fill-rule="evenodd" clip-rule="evenodd" d="M5 10.5715C5 7.21829 7.71829 4.5 11.0715 4.5C14.4246 4.5 17.1429 7.21829 17.1429 10.5715C17.1429 13.9246 14.4246 16.6429 11.0715 16.6429C7.71829 16.6429 5 13.9246 5 10.5715ZM11.0715 3C6.88986 3 3.5 6.38986 3.5 10.5715C3.5 14.7531 6.88986 18.1429 11.0715 18.1429C12.7836 18.1429 14.3629 17.5747 15.6313 16.6164L19.7219 20.6728C20.016 20.9644 20.4909 20.9624 20.7825 20.6683C21.0742 20.3742 21.0722 19.8993 20.7781 19.6077L16.7341 15.5976C17.9217 14.2607 18.6429 12.5003 18.6429 10.5715C18.6429 6.38986 15.2531 3 11.0715 3Z" fill="#21272F"/>
</svg>
